<svg width="35" height="34" viewBox="0 0 35 34" fill="none" xmlns="http://www.w3.org/2000/svg">
<path d="M24.93 10.2311L24.0129 11.1483C23.7821 11.379 23.7706 11.7377 23.9659 11.9991C25.0083 13.3949 25.6716 15.1237 25.6716 16.9999C25.6716 18.8761 25.0084 20.6477 23.9661 22.0435C23.7709 22.305 23.7823 22.6635 24.0129 22.8943L24.9294 23.811C25.2012 24.0841 25.6539 24.0577 25.8936 23.7518C27.4067 21.8101 28.2497 19.4477 28.2497 16.9999C28.2497 14.5552 27.4073 12.2352 25.8943 10.2909C25.6608 9.99 25.2087 9.95236 24.93 10.2311Z" fill="#858C8A"/>
<path d="M23.9588 8.35543C22.0145 6.84235 19.6945 6 17.2499 6C11.7368 6 6.93997 10.165 6.25518 15.6309C6.20676 16.0115 6.50371 16.3553 6.89464 16.3553H8.20469C8.52537 16.3553 8.79589 16.1204 8.84174 15.803C9.42916 11.7433 13.0294 8.57809 17.2499 8.57809C19.126 8.57809 20.8548 9.24144 22.2507 10.2838C22.5121 10.4791 22.8707 10.4676 23.1015 10.2369L24.0186 9.31973C24.2924 9.04593 24.2648 8.59283 23.9588 8.35543Z" fill="#858C8A"/>
<path d="M15.8802 27.9947C16.2813 28.0414 16.6054 27.7303 16.6054 27.3552V26.0549C16.6054 25.7293 16.3594 25.4684 16.0371 25.4217C12.3825 24.8911 9.3742 21.8672 8.84367 18.2127C8.79697 17.8904 8.53606 17.6444 8.21041 17.6444H6.89468C6.50319 17.6444 6.2068 17.9887 6.25518 18.3689C6.87706 23.3337 10.9079 27.3704 15.8802 27.9947Z" fill="#858C8A"/>
<path d="M23.1007 23.8052C22.8703 23.5748 22.5124 23.5633 22.2511 23.7582C21.1619 24.5705 19.8693 25.2178 18.4624 25.4216C18.1402 25.4684 17.8943 25.729 17.8943 26.0546V27.3559C17.8943 27.7318 18.2191 28.0419 18.6193 27.9954C20.5641 27.751 22.417 26.8897 23.9751 25.6758C24.2817 25.4369 24.2939 24.9985 24.0191 24.7237L23.1007 23.8052Z" fill="#858C8A"/>
<path d="M17.2499 11.8437C14.4022 11.8437 12.0938 14.1522 12.0938 16.9999C12.0938 19.8475 14.4022 22.199 17.2499 22.199C20.0977 22.199 22.4061 19.8475 22.4061 16.9999C22.4061 14.1522 20.0977 11.8437 17.2499 11.8437ZM18.3301 19.3195C18.1905 19.3893 18.0441 19.4443 17.8944 19.4858V19.6639C17.8944 20.0199 17.6058 20.3084 17.2499 20.3084C16.8939 20.3084 16.6053 20.0199 16.6053 19.6639V19.506C16.337 19.4384 16.0868 19.3248 15.8749 19.1659C15.5901 18.9524 15.5324 18.5484 15.746 18.2636C15.9596 17.9789 16.3635 17.9211 16.6483 18.1347C16.9061 18.328 17.402 18.3424 17.7536 18.1666C17.8949 18.0959 17.9712 18.0108 17.9712 17.9667C17.9712 17.8895 17.9712 17.8776 17.8854 17.8319C17.7172 17.7421 17.4199 17.6869 17.1323 17.6336C16.7484 17.5624 16.3514 17.4887 16.0074 17.3051C15.505 17.037 15.2395 16.5971 15.2395 16.0331C15.2395 15.4684 15.5781 14.9752 16.1686 14.68C16.3085 14.61 16.4552 14.5546 16.6053 14.513V14.3358C16.6053 13.9799 16.8939 13.6913 17.2499 13.6913C17.6058 13.6913 17.8944 13.9799 17.8944 14.3358V14.4937C18.1627 14.5613 18.4129 14.6749 18.6248 14.8338C18.9096 15.0474 18.9673 15.4514 18.7537 15.7362C18.5401 16.0209 18.1362 16.0787 17.8514 15.8651C17.5932 15.6714 17.0969 15.6571 16.745 15.8329C16.6029 15.904 16.5285 15.9874 16.5285 16.033C16.5285 16.1102 16.5285 16.1221 16.6143 16.1679C16.7825 16.2576 17.0799 16.3128 17.3674 16.3661C17.7513 16.4374 18.1483 16.511 18.4924 16.6946C18.9947 16.9628 19.2602 17.4026 19.2602 17.9667C19.2602 18.5309 18.9212 19.0239 18.3301 19.3195Z" fill="#858C8A"/>
</svg>
