<svg width="16" height="17" viewBox="0 0 16 17" fill="none" xmlns="http://www.w3.org/2000/svg">
<g clip-path="url(#clip0_440_11414)">
<path d="M14.2526 11.9741C13.2446 11.0772 12.6666 9.76634 12.6666 8.37757V6.42108C12.6666 3.9516 10.9239 1.90739 8.66659 1.56493V0.80704C8.66659 0.41897 8.36792 0.105286 7.99992 0.105286C7.63192 0.105286 7.33325 0.41897 7.33325 0.80704V1.56493C5.07525 1.90739 3.33325 3.9516 3.33325 6.42108V8.37757C3.33325 9.76634 2.75525 11.0772 1.74125 11.9797C1.48192 12.2134 1.33325 12.553 1.33325 12.9123C1.33325 13.5895 1.85659 14.1404 2.49992 14.1404H13.4999C14.1433 14.1404 14.6666 13.5895 14.6666 12.9123C14.6666 12.553 14.5179 12.2134 14.2526 11.9741Z" fill="url(#paint0_linear_440_11414)"/>
<path d="M7.99987 16.9474C9.2072 16.9474 10.2172 16.0414 10.4492 14.8421H5.55054C5.78254 16.0414 6.79254 16.9474 7.99987 16.9474Z" fill="url(#paint1_linear_440_11414)"/>
</g>
<defs>
<linearGradient id="paint0_linear_440_11414" x1="7.99992" y1="30.3476" x2="-15.6904" y2="18.532" gradientUnits="userSpaceOnUse">
<stop stop-color="#274996"/>
<stop offset="1" stop-color="#3DBA75"/>
</linearGradient>
<linearGradient id="paint1_linear_440_11414" x1="7.99987" y1="19.3785" x2="3.63891" y2="14.0511" gradientUnits="userSpaceOnUse">
<stop stop-color="#274996"/>
<stop offset="1" stop-color="#3DBA75"/>
</linearGradient>
<clipPath id="clip0_440_11414">
<rect width="16" height="16.8421" fill="white" transform="translate(0 0.105286)"/>
</clipPath>
</defs>
</svg>
