<svg width="35" height="34" viewBox="0 0 35 34" fill="none" xmlns="http://www.w3.org/2000/svg">
<path d="M25.3954 21.1724H22.9382L23.2754 21.931H25.0582L25.3954 21.1724Z" fill="#858C8A"/>
<path d="M25.6841 24.2069H22.6496H20.8035L21.0879 26.4828H27.2457L27.5302 24.2069H25.6841Z" fill="#858C8A"/>
<path d="M23.0289 16.2414C23.0289 17.7651 22.3537 18.6333 21.9733 19.0013L22.601 20.4138H25.7326L26.2386 19.2759H23.0289V18.5173H25.9598C25.6325 18.0393 25.3047 17.3023 25.3047 16.2414C25.3047 15.0614 25.7777 14.0698 26.2352 13.1109C26.7101 12.1156 27.2013 11.0862 27.2013 9.79311C27.2013 7.48273 25.2998 7.13794 24.1668 7.13794C23.0338 7.13794 21.1323 7.48273 21.1323 9.79311C21.1323 11.0862 21.6235 12.1156 22.0984 13.1109C22.5559 14.0698 23.0289 15.0614 23.0289 16.2414ZM24.1668 7.89656C24.2396 7.89656 25.9625 7.91249 26.4229 9.29394C26.8561 10.5931 26.0349 11.8475 25.9996 11.9002L25.3685 11.4795C25.3745 11.4704 26.0178 10.4766 25.7038 9.53404C25.4166 8.67301 24.1782 8.65518 24.1657 8.65518L24.1668 7.89656Z" fill="#858C8A"/>
<path d="M23.4082 22.6896H24.9254V23.4483H23.4082V22.6896Z" fill="#858C8A"/>
<path d="M16.2204 20.0345C15.6606 21.1565 14.5037 21.931 13.167 21.931C12.9121 21.931 12.6644 21.9007 12.425 21.8476L12.7668 27.9996C12.774 27.9996 12.7805 28 12.7877 28C16.7097 28 18.3855 26.7604 18.821 26.364L17.4145 20.0345H16.2204Z" fill="#858C8A"/>
<path d="M13.1669 21.1724C14.6306 21.1724 15.8221 19.981 15.8221 18.5172C15.8221 17.0531 14.6306 15.8621 13.1669 15.8621C11.7031 15.8621 10.5117 17.0531 10.5117 18.5172C10.5117 19.981 11.7031 21.1724 13.1669 21.1724ZM13.1669 17C14.0048 17 14.6841 17.6793 14.6841 18.5172C14.6841 19.3551 14.0048 20.0345 13.1669 20.0345C12.329 20.0345 11.6496 19.3551 11.6496 18.5172C11.6496 17.6793 12.329 17 13.1669 17Z" fill="#858C8A"/>
<path d="M17.3393 19.2758V18.5172H16.5807C16.5807 18.7782 16.5484 19.0316 16.4927 19.2758H17.3393Z" fill="#858C8A"/>
<path d="M8.92089 6.8891L9.25392 6.77797C9.40034 6.72903 12.8559 5.59907 14.8795 6.81248C15.2895 7.05828 15.541 7.31241 15.6468 7.58097C16.5067 7.5419 17.4459 7.45807 18.3779 7.298C17.5919 6.77834 15.8983 6 12.7876 6C9.25506 6 7.99309 6.99683 7.60278 7.44745C7.90016 7.67731 8.47027 8.05852 9.28161 8.332L8.92089 6.8891Z" fill="#858C8A"/>
<path d="M11.6534 21.5726C10.9874 21.2415 10.4453 20.7002 10.1134 20.0345H8.91976L7.5 26.4236C7.71241 26.7339 8.69786 27.8297 12.0066 27.9814L11.6504 21.573L11.6534 21.5726Z" fill="#858C8A"/>
<path d="M17.3394 17H16.2205C16.3396 17.2386 16.4321 17.4923 16.4928 17.7586H17.3394V17Z" fill="#858C8A"/>
<path d="M11.6496 8.64495V7.47781L12.0669 7.51915C12.087 7.52105 13.182 7.6265 14.7046 7.60791C14.6462 7.56391 14.5764 7.51574 14.4888 7.46302C13.0952 6.62702 10.7078 7.15957 9.83008 7.39891L10.1168 8.54633C10.4719 8.61308 10.8554 8.65519 11.2703 8.65519C11.3974 8.65519 11.5229 8.64836 11.6496 8.64495Z" fill="#858C8A"/>
<path d="M18.7711 7.99896C16.127 8.4951 13.4263 8.37865 12.4082 8.30772V15.1911C12.6525 15.1357 12.9059 15.1034 13.1668 15.1034C14.1743 15.1034 15.0785 15.545 15.704 16.2414H17.3973L18.7711 7.99896Z" fill="#858C8A"/>
<path d="M11.6498 15.4638V9.40353C11.5231 9.40695 11.3975 9.41377 11.2704 9.41377C9.60452 9.41377 8.36872 8.85391 7.62793 8.39001L8.93655 16.2414H10.6298C10.9166 15.922 11.2617 15.6572 11.6498 15.4638Z" fill="#858C8A"/>
<path d="M10.1134 17H8.99438V17.7586H9.84101C9.9017 17.4923 9.99425 17.2386 10.1134 17Z" fill="#858C8A"/>
<path d="M8.99438 19.2758H9.84101C9.78525 19.0316 9.75301 18.7782 9.75301 18.5172H8.99438V19.2758Z" fill="#858C8A"/>
</svg>
