<svg width="34" height="34" viewBox="0 0 34 34" fill="none" xmlns="http://www.w3.org/2000/svg">
<path d="M17.0074 17.7333C16.1372 17.7333 15.2865 17.4753 14.5629 16.9918C13.8393 16.5083 13.2754 15.8212 12.9424 15.0172C12.6093 14.2132 12.5222 13.3285 12.692 12.475C12.8617 11.6214 13.2808 10.8374 13.8962 10.2221C14.5115 9.60673 15.2955 9.18767 16.149 9.0179C17.0025 8.84812 17.8872 8.93526 18.6912 9.26828C19.4952 9.60131 20.1824 10.1653 20.6659 10.8888C21.1494 11.6124 21.4074 12.4631 21.4074 13.3333C21.4074 14.5003 20.9438 15.6195 20.1187 16.4446C19.2935 17.2698 18.1744 17.7333 17.0074 17.7333ZM17.0074 10.4C16.4273 10.4 15.8601 10.5721 15.3777 10.8944C14.8954 11.2167 14.5194 11.6748 14.2974 12.2108C14.0754 12.7468 14.0173 13.3366 14.1305 13.9056C14.2436 14.4746 14.523 14.9973 14.9332 15.4075C15.3435 15.8178 15.8661 16.0971 16.4352 16.2103C17.0042 16.3235 17.594 16.2654 18.13 16.0434C18.666 15.8214 19.1241 15.4454 19.4464 14.963C19.7687 14.4806 19.9408 13.9135 19.9408 13.3333C19.9408 12.5554 19.6317 11.8093 19.0816 11.2592C18.5315 10.7091 17.7854 10.4 17.0074 10.4Z" fill="#858C8A"/>
<path d="M17.0074 28C15.3812 27.9989 13.7754 27.6372 12.3058 26.9411C10.8361 26.2449 9.53906 25.2316 8.50804 23.974L8.12671 23.5046L8.50804 23.0426C9.53993 21.7867 10.8373 20.775 12.307 20.0804C13.7766 19.3858 15.3819 19.0256 17.0074 19.0256C18.6329 19.0256 20.2382 19.3858 21.7078 20.0804C23.1774 20.775 24.4748 21.7867 25.5067 23.0426L25.888 23.5046L25.5067 23.974C24.4757 25.2316 23.1787 26.2449 21.709 26.9411C20.2393 27.6372 18.6336 27.9989 17.0074 28ZM10.048 23.512C10.9399 24.4668 12.0186 25.2281 13.217 25.7486C14.4155 26.269 15.7081 26.5376 17.0147 26.5376C18.3213 26.5376 19.6139 26.269 20.8124 25.7486C22.0108 25.2281 23.0895 24.4668 23.9814 23.512C23.0895 22.5572 22.0108 21.7959 20.8124 21.2754C19.6139 20.7549 18.3213 20.4863 17.0147 20.4863C15.7081 20.4863 14.4155 20.7549 13.217 21.2754C12.0186 21.7959 10.9399 22.5572 10.048 23.512Z" fill="#858C8A"/>
<path d="M17.0073 28C14.5087 28.0017 12.0839 27.1526 10.1321 25.5926C8.18031 24.0325 6.81779 21.8544 6.2688 19.4168C5.71981 16.9792 6.01708 14.4274 7.11166 12.1812C8.20625 9.93509 10.0329 8.12853 12.2911 7.05889C14.5492 5.98925 17.1042 5.72028 19.5356 6.29623C21.9669 6.87218 24.1298 8.25874 25.6681 10.2277C27.2064 12.1967 28.0286 14.6307 27.9992 17.1292C27.9699 19.6277 27.0908 22.0417 25.5067 23.974C24.4757 25.2316 23.1786 26.245 21.709 26.9411C20.2393 27.6373 18.6335 27.9989 17.0073 28ZM17.0073 7.46667C15.1218 7.46667 13.2787 8.02579 11.7109 9.07333C10.1432 10.1209 8.92125 11.6098 8.19969 13.3518C7.47814 15.0937 7.28934 17.0106 7.65719 18.8599C8.02504 20.7091 8.933 22.4078 10.2663 23.7411C11.5995 25.0743 13.2982 25.9823 15.1475 26.3501C16.9968 26.718 18.9136 26.5292 20.6556 25.8076C22.3976 25.0861 23.8865 23.8642 24.934 22.2964C25.9815 20.7287 26.5407 18.8855 26.5407 17C26.5407 14.4716 25.5363 12.0468 23.7484 10.2589C21.9606 8.47108 19.5357 7.46667 17.0073 7.46667Z" fill="#858C8A"/>
<path d="M9.07275 23.512C9.07275 23.512 16.4574 31.762 23.9741 24.3333L24.9421 23.512C24.9421 23.512 18.6648 17 12.2921 20.9087L9.07275 23.512Z" fill="#858C8A"/>
<path d="M17.0072 17C19.0323 17 20.6739 15.3584 20.6739 13.3334C20.6739 11.3083 19.0323 9.66669 17.0072 9.66669C14.9822 9.66669 13.3406 11.3083 13.3406 13.3334C13.3406 15.3584 14.9822 17 17.0072 17Z" fill="#858C8A"/>
</svg>
