<svg width="35" height="34" viewBox="0 0 35 34" fill="none" xmlns="http://www.w3.org/2000/svg">
<path d="M11.2617 24.1328C11.6177 24.1328 11.9062 23.8442 11.9062 23.4883C11.9062 23.1323 11.6177 22.8438 11.2617 22.8438C10.9058 22.8438 10.6172 23.1323 10.6172 23.4883C10.6172 23.8442 10.9058 24.1328 11.2617 24.1328Z" fill="#858C8A"/>
<path d="M6.75 28H23.5078V6H6.75V28ZM20.9297 24.7773H20.2852C19.5645 24.7773 19.251 24.1511 19.0641 23.7766C19.0439 23.7363 19.0206 23.6891 18.9961 23.6425C18.9716 23.6891 18.9483 23.7363 18.9281 23.7766C18.7412 24.1511 18.4277 24.7773 17.707 24.7773C16.9864 24.7773 16.6729 24.1511 16.4859 23.7766C16.4658 23.7363 16.4425 23.6891 16.418 23.6425C16.3934 23.6891 16.3701 23.7363 16.35 23.7766C16.163 24.1511 15.8496 24.7773 15.1289 24.7773H14.4844V23.4883H15.0402C15.088 23.4178 15.1516 23.2906 15.1969 23.2C15.3838 22.8255 15.6973 22.1992 16.418 22.1992C17.1386 22.1992 17.4521 22.8255 17.6391 23.2C17.6592 23.2403 17.6825 23.2875 17.707 23.3341C17.7316 23.2875 17.7549 23.2403 17.775 23.2C17.962 22.8255 18.2754 22.1992 18.9961 22.1992C19.7168 22.1992 20.0302 22.8255 20.2172 23.2C20.2738 23.3139 20.3601 23.4857 20.4073 23.5292H21.0518L20.9297 24.7773ZM13.1953 9.95312H14.4844V8.66406H15.7734V9.95312H17.0625V11.2422H15.7734V15.1094H14.4844V11.2422H13.1953V9.95312ZM10.6172 16.3984H19.6406V17.6875H10.6172V16.3984ZM9.32812 18.9766H20.9297V20.2656H9.32812V18.9766ZM11.2617 21.5547C12.3279 21.5547 13.1953 22.4221 13.1953 23.4883C13.1953 24.5545 12.3279 25.4219 11.2617 25.4219C10.1955 25.4219 9.32812 24.5545 9.32812 23.4883C9.32812 22.4221 10.1955 21.5547 11.2617 21.5547Z" fill="#858C8A"/>
<path d="M27.4609 9.95312V8.66406H26.1719V9.95312H24.8828V21.5547H28.75V9.95312H27.4609Z" fill="#858C8A"/>
<path d="M24.8828 23.6406L26.8164 27.5078L28.75 23.6406V22.8438H24.8828V23.6406Z" fill="#858C8A"/>
</svg>
