<svg width="34" height="34" viewBox="0 0 34 34" fill="none" xmlns="http://www.w3.org/2000/svg">
<path d="M27.4069 15.5689C27.4063 15.5684 27.4058 15.5679 27.4053 15.5674L18.4311 6.59351C18.0486 6.21082 17.54 6 16.999 6C16.458 6 15.9495 6.21065 15.5668 6.59334L6.59722 15.5627C6.5942 15.5658 6.59118 15.5689 6.58816 15.572C5.80263 16.362 5.80398 17.6439 6.59202 18.4319C6.95205 18.7921 7.42756 19.0007 7.93597 19.0226C7.95661 19.0246 7.97742 19.0256 7.99841 19.0256H8.35609V25.6298C8.35609 26.9367 9.4194 28 10.7266 28H14.2376C14.5934 28 14.8821 27.7115 14.8821 27.3555V22.1777C14.8821 21.5814 15.3672 21.0963 15.9636 21.0963H18.0345C18.6308 21.0963 19.1159 21.5814 19.1159 22.1777V27.3555C19.1159 27.7115 19.4044 28 19.7604 28H23.2714C24.5786 28 25.6419 26.9367 25.6419 25.6298V19.0256H25.9736C26.5144 19.0256 27.023 18.8149 27.4058 18.4322C28.1947 17.6429 28.1951 16.3588 27.4069 15.5689Z" fill="#3DBA75"/>
</svg>
