<svg width="197" height="36" viewBox="0 0 197 36" fill="none" xmlns="http://www.w3.org/2000/svg">
<path d="M11.5403 28.0625C17.2484 28.0625 21.8758 23.6569 21.8758 18.2222C21.8758 12.7875 17.2484 8.38184 11.5403 8.38184C5.83209 8.38184 1.20471 12.7875 1.20471 18.2222C1.20471 23.6569 5.83209 28.0625 11.5403 28.0625Z" fill="white"/>
<path d="M46.1012 16.1026H43.7778V11.183C43.7778 10.3931 43.1276 9.74741 42.3322 9.74741C41.5369 9.74741 40.8867 10.3931 40.8867 11.183V13.6685C40.8867 12.8786 40.2365 12.2329 39.4411 12.2329C38.6458 12.2329 37.9956 12.8786 37.9956 13.6685V12.1324C37.9956 11.3425 37.3454 10.6968 36.55 10.6968C35.7547 10.6968 35.1045 11.3425 35.1045 12.1324V16.1037H22.176C22.0891 16.1037 22.0198 16.1736 22.0198 16.2588V19.7145C22.0198 19.8008 22.0902 19.8696 22.176 19.8696H46.1034C47.1463 19.8696 48 19.0218 48 17.9861C48 16.9504 47.1463 16.1026 46.1034 16.1026H46.1012Z" fill="url(#paint0_linear_440_11498)"/>
<path d="M19.4686 7.19638V4.54592C20.5929 4.39625 21.4598 3.44029 21.4598 2.28331C21.4598 1.02254 20.4301 -6.10352e-05 19.1606 -6.10352e-05C17.891 -6.10352e-05 16.8613 1.02254 16.8613 2.28331C16.8613 3.44029 17.7282 4.39625 18.8525 4.54592V7.46951L22.0649 10.3297V14.6528H22.6809V10.0566L19.4686 7.19638Z" fill="url(#paint1_linear_440_11498)"/>
<path d="M35.1968 2.28435C35.1968 1.02358 34.1671 0.000976562 32.8976 0.000976562C31.628 0.000976562 30.5983 1.02358 30.5983 2.28435C30.5983 3.44133 31.4652 4.39728 32.5895 4.54696V7.19742L29.3772 10.0576V14.6539H29.9933V10.3308L33.2056 7.47055V4.54696C34.3299 4.39728 35.1968 3.44133 35.1968 2.28435Z" fill="url(#paint2_linear_440_11498)"/>
<path d="M28.3291 6.33318C28.3291 5.07241 27.2994 4.0498 26.0298 4.0498C24.7603 4.0498 23.7306 5.07241 23.7306 6.33318C23.7306 7.49016 24.5975 8.44611 25.7218 8.59579V14.6538H26.3379V8.59579C27.4622 8.44611 28.3291 7.49016 28.3291 6.33318Z" fill="url(#paint3_linear_440_11498)"/>
<path d="M22.6809 25.9257V21.3295H22.0649V25.6526L18.8525 28.5128V31.4364C17.7282 31.5861 16.8613 32.5421 16.8613 33.699C16.8613 34.9598 17.891 35.9824 19.1606 35.9824C20.4301 35.9824 21.4598 34.9598 21.4598 33.699C21.4598 32.5421 20.5929 31.5861 19.4686 31.4364V28.786L22.6809 25.9257Z" fill="url(#paint4_linear_440_11498)"/>
<path d="M33.2056 31.4361V28.5125L29.9933 25.6522V21.3291H29.3772V25.9254L32.5895 28.7856V31.4361C31.4652 31.5857 30.5983 32.5417 30.5983 33.6987C30.5983 34.9594 31.628 35.982 32.8976 35.982C34.1671 35.982 35.1968 34.9594 35.1968 33.6987C35.1968 32.5417 34.3299 31.5857 33.2056 31.4361Z" fill="url(#paint5_linear_440_11498)"/>
<path d="M26.3379 27.3862V21.3282H25.7218V27.3862C24.5975 27.5359 23.7306 28.4919 23.7306 29.6488C23.7306 30.9096 24.7603 31.9322 26.0298 31.9322C27.2994 31.9322 28.3291 30.9096 28.3291 29.6488C28.3291 28.4919 27.4622 27.5359 26.3379 27.3862Z" fill="url(#paint6_linear_440_11498)"/>
<path d="M17.0638 13.1321C17.0286 13.1201 16.9923 13.1103 16.956 13.1026C16.9505 13.1015 16.945 13.0994 16.9395 13.0983C16.9395 13.0983 16.9395 13.0994 16.9395 13.1004C16.8999 13.0939 16.8592 13.0895 16.8174 13.0895H12.0891C11.1617 13.0895 10.4027 13.8434 10.4027 14.7644V15.6996C10.4027 16.6206 11.1617 17.3744 12.0891 17.3744H16.2717C15.3686 19.0765 13.747 20.298 11.8394 20.5864C11.7789 20.5951 11.7173 20.6039 11.6568 20.6115C11.6491 20.6115 11.6414 20.6137 11.6337 20.6148C11.4148 20.6399 11.1925 20.653 10.967 20.653C7.61277 20.653 4.8944 17.7917 4.8944 14.2607C4.8944 10.7297 7.61277 7.86836 10.967 7.86836C12.0297 7.86836 13.0275 8.15678 13.8955 8.66153C13.8955 8.66153 13.8955 8.66153 13.8966 8.66153C13.9032 8.66481 13.9109 8.66699 13.9175 8.67027C13.9263 8.67355 13.9351 8.67682 13.9439 8.6801C13.956 8.68447 13.9659 8.68884 13.9747 8.6954C14.3213 8.8855 14.7184 8.99365 15.1419 8.99365C16.4775 8.99365 17.56 7.91861 17.56 6.59229C17.56 5.63087 16.9912 4.80165 16.1694 4.41817C14.6051 3.52012 12.8053 3.00882 10.89 3.00882C4.87569 3.00882 0 8.04644 0 14.2607C0 20.475 4.87569 25.5137 10.89 25.5137C14.2233 25.5137 17.2057 23.9656 19.2035 21.5282C19.2035 21.5282 19.2057 21.526 19.2068 21.526C19.2145 21.5161 19.2222 21.5063 19.2299 21.4965C19.2718 21.4451 19.3136 21.3927 19.3554 21.3402C19.373 21.3173 19.3906 21.2955 19.4082 21.2725C19.4379 21.2343 19.4665 21.196 19.4962 21.1578C19.5138 21.1338 19.5314 21.1108 19.549 21.0868C19.5875 21.0354 19.6249 20.983 19.6623 20.9306C19.6821 20.9032 19.7008 20.8759 19.7206 20.8486C19.7481 20.8093 19.7745 20.77 19.802 20.7306C20.0143 20.4193 20.2112 20.097 20.3928 19.7637C20.6161 19.1989 20.7393 18.5838 20.7393 17.9392C20.7393 15.6482 19.1837 13.7188 17.066 13.1321H17.0638Z" fill="url(#paint7_linear_440_11498)"/>
<g opacity="0.4">
<path d="M20.3906 19.7636C20.5414 19.3812 20.647 18.9759 20.6987 18.5553C19.9968 17.4759 18.603 17.3743 18.603 17.3743H16.2707C15.3675 19.0764 13.746 20.2978 11.8384 20.5863C11.7779 20.595 11.7163 20.6038 11.6558 20.6114C11.6481 20.6114 11.6404 20.6136 11.6327 20.6147C11.4137 20.6398 11.1915 20.6529 10.966 20.6529C8.18381 20.6529 5.83947 18.6842 5.1211 15.9977C4.82517 16.9241 4.66565 17.9172 4.66565 18.9497C4.66565 21.0506 5.33012 22.9876 6.44673 24.5368C7.80317 25.1639 9.30702 25.5135 10.8901 25.5135C14.2234 25.5135 17.2058 23.9654 19.2036 21.528C19.2036 21.528 19.2058 21.5258 19.2069 21.5258C19.2146 21.516 19.2223 21.5062 19.23 21.4963C19.2718 21.445 19.3136 21.3926 19.3554 21.3401C19.373 21.3172 19.3906 21.2953 19.4082 21.2724C19.4379 21.2341 19.4665 21.1959 19.4963 21.1577C19.5139 21.1336 19.5315 21.1107 19.5491 21.0866C19.5876 21.0353 19.625 20.9829 19.6624 20.9304C19.6822 20.9031 19.7009 20.8758 19.7207 20.8485C19.7482 20.8091 19.7746 20.7698 19.8021 20.7305C20.0144 20.4191 20.2113 20.0968 20.3928 19.7636H20.3906Z" fill="white"/>
</g>
<path d="M79.0699 7.18394L75.6319 19.9999H73.5439L71.1859 12.2239L68.8279 19.9999H66.7399L63.3199 7.18394H65.9299L67.9099 15.2659L69.8719 8.58794C70.0879 7.59194 70.5439 7.09394 71.2399 7.09394C71.5879 7.09394 71.8519 7.22594 72.0319 7.48994C72.2119 7.74194 72.3739 8.10794 72.5179 8.58794L74.4619 15.2659L76.4599 7.18394H79.0699ZM83.1689 19.9999H80.6669V7.18394H83.1689V19.9999ZM94.0532 19.9999H90.2372C88.7972 19.9999 87.7532 19.7239 87.1052 19.1719C86.4692 18.6079 86.1512 17.6959 86.1512 16.4359V7.18394H88.6532V16.4359C88.6532 16.9399 88.7672 17.2879 88.9952 17.4799C89.2232 17.6719 89.6372 17.7679 90.2372 17.7679H94.0532V19.9999ZM103.95 19.9999H100.134C98.6937 19.9999 97.6497 19.7239 97.0017 19.1719C96.3657 18.6079 96.0477 17.6959 96.0477 16.4359V7.18394H98.5497V16.4359C98.5497 16.9399 98.6637 17.2879 98.8917 17.4799C99.1197 17.6719 99.5337 17.7679 100.134 17.7679H103.95V19.9999ZM109.336 13.9699V12.3859C109.336 10.7179 109.774 9.41594 110.65 8.47994C111.526 7.54394 112.738 7.07594 114.286 7.07594C115.834 7.07594 117.076 7.54394 118.012 8.47994C118.672 9.13994 119.002 10.1299 119.002 11.4499H116.662C116.662 10.0219 115.9 9.30794 114.376 9.30794C113.92 9.30794 113.53 9.39794 113.206 9.57794C112.894 9.74594 112.66 9.94394 112.504 10.1719C112.348 10.3999 112.228 10.7359 112.144 11.1799C112.06 11.6239 112.012 11.9959 112 12.2959C111.988 12.5959 111.982 12.9979 111.982 13.5019C111.982 14.0059 111.982 14.3479 111.982 14.5279C111.994 14.6959 112.012 14.9779 112.036 15.3739C112.072 15.7579 112.12 16.0339 112.18 16.2019C112.252 16.3699 112.348 16.5859 112.468 16.8499C112.6 17.1139 112.762 17.2999 112.954 17.4079C113.446 17.7199 114.004 17.8759 114.628 17.8759C115.672 17.8759 116.41 17.4319 116.842 16.5439V15.6799H115.294V13.5919H118.984V17.4619C118.612 18.3379 118.024 18.9979 117.22 19.4419C116.416 19.8859 115.504 20.1079 114.484 20.1079C112.672 20.1079 111.358 19.6039 110.542 18.5959C109.738 17.5759 109.336 16.0339 109.336 13.9699ZM131.003 7.18394V15.6079C131.003 16.9999 130.529 18.0979 129.581 18.9019C128.645 19.7059 127.487 20.1079 126.107 20.1079C124.727 20.1079 123.563 19.7059 122.615 18.9019C121.679 18.0979 121.211 16.9999 121.211 15.6079V7.18394H123.713V15.5179C123.713 16.3099 123.929 16.9039 124.361 17.2999C124.805 17.6839 125.387 17.8759 126.107 17.8759C126.827 17.8759 127.409 17.6839 127.853 17.2999C128.297 16.9039 128.519 16.3099 128.519 15.5179V7.18394H131.003ZM143.332 19.9999H140.722L140.002 17.7859H135.7L134.998 19.9999H132.388L136.492 8.26394C136.672 7.85594 136.87 7.57394 137.086 7.41794C137.314 7.26194 137.59 7.18394 137.914 7.18394C138.238 7.18394 138.496 7.25594 138.688 7.39994C138.892 7.54394 139.072 7.83194 139.228 8.26394L143.332 19.9999ZM139.426 15.6799L137.914 10.6039L136.33 15.6799H139.426ZM154.793 19.9999H151.895L149.393 15.2479H147.593V19.9999H145.091V9.93794C145.091 8.97794 145.313 8.28194 145.757 7.84994C146.201 7.40594 146.945 7.18394 147.989 7.18394H150.113C151.385 7.18394 152.393 7.57394 153.137 8.35394C153.893 9.12194 154.271 10.0999 154.271 11.2879C154.271 12.1519 154.043 12.9019 153.587 13.5379C153.143 14.1619 152.591 14.5939 151.931 14.8339L154.793 19.9999ZM149.951 13.1599C150.479 13.1599 150.911 12.9799 151.247 12.6199C151.595 12.2479 151.769 11.7919 151.769 11.2519C151.769 10.6999 151.601 10.2559 151.265 9.91994C150.941 9.58394 150.503 9.41594 149.951 9.41594H148.709C147.965 9.41594 147.593 9.79394 147.593 10.5499V13.1599H149.951ZM166.534 13.5379L166.552 14.9239C166.504 15.7999 166.396 16.5379 166.228 17.1379C166.06 17.7379 165.73 18.2839 165.238 18.7759C164.422 19.5919 163.234 19.9999 161.674 19.9999C159.838 19.9999 158.578 19.7599 157.894 19.2799C157.21 18.7879 156.868 17.9059 156.868 16.6339V7.18394H161.854C163.294 7.18394 164.422 7.59194 165.238 8.40794C165.898 9.06794 166.288 9.87194 166.408 10.8199C166.492 11.4919 166.534 12.3979 166.534 13.5379ZM163.492 16.9759C163.72 16.6999 163.864 16.3219 163.924 15.8419C163.996 15.3499 164.032 14.5879 164.032 13.5559C164.032 12.5239 163.996 11.7799 163.924 11.3239C163.864 10.8559 163.72 10.4839 163.492 10.2079C163.06 9.67994 162.436 9.41594 161.62 9.41594H159.37V16.5079C159.37 16.9879 159.532 17.3179 159.856 17.4979C160.18 17.6779 160.756 17.7679 161.584 17.7679C162.424 17.7679 163.06 17.5039 163.492 16.9759ZM171.235 19.9999H168.733V7.18394H171.235V19.9999ZM183.938 19.9999H181.328L180.608 17.7859H176.306L175.604 19.9999H172.994L177.098 8.26394C177.278 7.85594 177.476 7.57394 177.692 7.41794C177.92 7.26194 178.196 7.18394 178.52 7.18394C178.844 7.18394 179.102 7.25594 179.294 7.39994C179.498 7.54394 179.678 7.83194 179.834 8.26394L183.938 19.9999ZM180.032 15.6799L178.52 10.6039L176.936 15.6799H180.032ZM195.686 7.18394V18.7039C195.686 19.0999 195.566 19.4419 195.326 19.7299C195.086 20.0059 194.804 20.1439 194.48 20.1439C193.652 20.1439 192.974 19.6639 192.446 18.7039L188.018 11.7739V19.9999H185.516V7.18394H187.928L193.184 15.5719V7.18394H195.686Z" fill="url(#paint8_linear_440_11498)"/>
<path d="M66.2975 28.3249V27.8849C66.2975 27.4216 66.4192 27.0599 66.6625 26.7999C66.9059 26.5399 67.2425 26.4099 67.6725 26.4099C68.1025 26.4099 68.4475 26.5399 68.7075 26.7999C68.8909 26.9833 68.9825 27.2583 68.9825 27.6249H68.3325C68.3325 27.2283 68.1209 27.0299 67.6975 27.0299C67.5709 27.0299 67.4625 27.0549 67.3725 27.1049C67.2859 27.1516 67.2209 27.2066 67.1775 27.2699C67.1342 27.3333 67.1009 27.4266 67.0775 27.5499C67.0542 27.6733 67.0409 27.7766 67.0375 27.8599C67.0342 27.9433 67.0325 28.0549 67.0325 28.1949C67.0325 28.3349 67.0325 28.4299 67.0325 28.4799C67.0359 28.5266 67.0409 28.6049 67.0475 28.7149C67.0575 28.8216 67.0709 28.8983 67.0875 28.9449C67.1075 28.9916 67.1342 29.0516 67.1675 29.1249C67.2042 29.1983 67.2492 29.2499 67.3025 29.2799C67.4392 29.3666 67.5942 29.4099 67.7675 29.4099C68.0575 29.4099 68.2625 29.2866 68.3825 29.0399V28.7999H67.9525V28.2199H68.9775V29.2949C68.8742 29.5383 68.7109 29.7216 68.4875 29.8449C68.2642 29.9683 68.0109 30.0299 67.7275 30.0299C67.2242 30.0299 66.8592 29.8899 66.6325 29.6099C66.4092 29.3266 66.2975 28.8983 66.2975 28.3249ZM73.8161 26.4399V28.7799C73.8161 29.1666 73.6845 29.4716 73.4211 29.6949C73.1611 29.9183 72.8395 30.0299 72.4561 30.0299C72.0728 30.0299 71.7495 29.9183 71.4861 29.6949C71.2261 29.4716 71.0961 29.1666 71.0961 28.7799V26.4399H71.7911V28.7549C71.7911 28.9749 71.8511 29.1399 71.9711 29.2499C72.0945 29.3566 72.2561 29.4099 72.4561 29.4099C72.6561 29.4099 72.8178 29.3566 72.9411 29.2499C73.0645 29.1399 73.1261 28.9749 73.1261 28.7549V26.4399H73.8161ZM78.741 29.9999H78.016L77.816 29.3849H76.621L76.426 29.9999H75.701L76.841 26.7399C76.891 26.6266 76.946 26.5483 77.006 26.5049C77.0693 26.4616 77.146 26.4399 77.236 26.4399C77.326 26.4399 77.3976 26.4599 77.451 26.4999C77.5076 26.5399 77.5576 26.6199 77.601 26.7399L78.741 29.9999ZM77.656 28.7999L77.236 27.3899L76.796 28.7999H77.656ZM83.4245 29.9999H82.6195L81.9245 28.6799H81.4245V29.9999H80.7295V27.2049C80.7295 26.9383 80.7911 26.7449 80.9145 26.6249C81.0378 26.5016 81.2445 26.4399 81.5345 26.4399H82.1245C82.4778 26.4399 82.7578 26.5483 82.9645 26.7649C83.1745 26.9783 83.2795 27.2499 83.2795 27.5799C83.2795 27.8199 83.2161 28.0283 83.0895 28.2049C82.9661 28.3783 82.8128 28.4983 82.6295 28.5649L83.4245 29.9999ZM82.0795 28.0999C82.2261 28.0999 82.3461 28.0499 82.4395 27.9499C82.5361 27.8466 82.5845 27.7199 82.5845 27.5699C82.5845 27.4166 82.5378 27.2933 82.4445 27.1999C82.3545 27.1066 82.2328 27.0599 82.0795 27.0599H81.7345C81.5278 27.0599 81.4245 27.1649 81.4245 27.3749V28.0999H82.0795ZM88.1859 28.2049L88.1909 28.5899C88.1776 28.8333 88.1476 29.0383 88.1009 29.2049C88.0543 29.3716 87.9626 29.5233 87.8259 29.6599C87.5993 29.8866 87.2693 29.9999 86.8359 29.9999C86.3259 29.9999 85.9759 29.9333 85.7859 29.7999C85.5959 29.6633 85.5009 29.4183 85.5009 29.0649V26.4399H86.8859C87.2859 26.4399 87.5993 26.5533 87.8259 26.7799C88.0093 26.9633 88.1176 27.1866 88.1509 27.4499C88.1743 27.6366 88.1859 27.8883 88.1859 28.2049ZM87.3409 29.1599C87.4043 29.0833 87.4443 28.9783 87.4609 28.8449C87.4809 28.7083 87.4909 28.4966 87.4909 28.2099C87.4909 27.9233 87.4809 27.7166 87.4609 27.5899C87.4443 27.4599 87.4043 27.3566 87.3409 27.2799C87.2209 27.1333 87.0476 27.0599 86.8209 27.0599H86.1959V29.0299C86.1959 29.1633 86.2409 29.2549 86.3309 29.3049C86.4209 29.3549 86.5809 29.3799 86.8109 29.3799C87.0443 29.3799 87.2209 29.3066 87.3409 29.1599ZM95.3889 26.4399L94.3189 28.5399V29.9999H93.6289V28.5399L92.5589 26.4399H93.3139L93.9789 27.8749L94.6339 26.4399H95.3889ZM99.9303 28.0549V28.3249C99.9303 28.9216 99.8169 29.3549 99.5903 29.6249C99.3669 29.8949 99.0069 30.0299 98.5103 30.0299C98.0136 30.0299 97.6536 29.8949 97.4303 29.6249C97.2103 29.3549 97.1003 28.9166 97.1003 28.3099V28.0499C97.1003 27.4966 97.2119 27.0849 97.4353 26.8149C97.6619 26.5449 98.0186 26.4099 98.5053 26.4099C98.9953 26.4099 99.3553 26.5466 99.5853 26.8199C99.8153 27.0933 99.9303 27.5049 99.9303 28.0549ZM99.2353 28.3099V28.1249C99.2353 27.8049 99.1953 27.5499 99.1153 27.3599C99.0219 27.1399 98.8219 27.0299 98.5153 27.0299C98.2053 27.0299 98.0036 27.1399 97.9103 27.3599C97.8336 27.5399 97.7953 27.7949 97.7953 28.1249V28.3099C97.7953 28.7399 97.8553 29.0299 97.9753 29.1799C98.0219 29.2433 98.0903 29.2983 98.1803 29.3449C98.2736 29.3883 98.3836 29.4099 98.5103 29.4099C98.6403 29.4099 98.7503 29.3883 98.8403 29.3449C98.9303 29.3016 99.0003 29.2483 99.0503 29.1849C99.1003 29.1216 99.1386 29.0383 99.1653 28.9349C99.2119 28.7716 99.2353 28.5633 99.2353 28.3099ZM104.653 26.4399V28.7799C104.653 29.1666 104.521 29.4716 104.258 29.6949C103.998 29.9183 103.676 30.0299 103.293 30.0299C102.91 30.0299 102.586 29.9183 102.323 29.6949C102.063 29.4716 101.933 29.1666 101.933 28.7799V26.4399H102.628V28.7549C102.628 28.9749 102.688 29.1399 102.808 29.2499C102.931 29.3566 103.093 29.4099 103.293 29.4099C103.493 29.4099 103.655 29.3566 103.778 29.2499C103.901 29.1399 103.963 28.9749 103.963 28.7549V26.4399H104.653ZM109.573 29.9999H108.768L108.073 28.6799H107.573V29.9999H106.878V27.2049C106.878 26.9383 106.94 26.7449 107.063 26.6249C107.186 26.5016 107.393 26.4399 107.683 26.4399H108.273C108.626 26.4399 108.906 26.5483 109.113 26.7649C109.323 26.9783 109.428 27.2499 109.428 27.5799C109.428 27.8199 109.365 28.0283 109.238 28.2049C109.115 28.3783 108.961 28.4983 108.778 28.5649L109.573 29.9999ZM108.228 28.0999C108.375 28.0999 108.495 28.0499 108.588 27.9499C108.685 27.8466 108.733 27.7199 108.733 27.5699C108.733 27.4166 108.686 27.2933 108.593 27.1999C108.503 27.1066 108.381 27.0599 108.228 27.0599H107.883C107.676 27.0599 107.573 27.1649 107.573 27.3749V28.0999H108.228ZM116.956 29.9999H116.261V28.5599H114.956V29.9999H114.261V26.4399H114.956V27.9449H116.261V26.4399H116.956V29.9999ZM121.579 29.9999H120.319C119.919 29.9999 119.638 29.9316 119.474 29.7949C119.314 29.6549 119.234 29.4099 119.234 29.0599V26.4399H121.579V27.0599H119.929V27.8949H121.084L121.034 28.5149H119.929V29.0099C119.929 29.1499 119.961 29.2466 120.024 29.2999C120.088 29.3533 120.203 29.3799 120.369 29.3799H121.579V29.9999ZM126.457 29.9999H125.652L124.957 28.6799H124.457V29.9999H123.762V27.2049C123.762 26.9383 123.823 26.7449 123.947 26.6249C124.07 26.5016 124.277 26.4399 124.567 26.4399H125.157C125.51 26.4399 125.79 26.5483 125.997 26.7649C126.207 26.9783 126.312 27.2499 126.312 27.5799C126.312 27.8199 126.248 28.0283 126.122 28.2049C125.998 28.3783 125.845 28.4983 125.662 28.5649L126.457 29.9999ZM125.112 28.0999C125.258 28.0999 125.378 28.0499 125.472 27.9499C125.568 27.8466 125.617 27.7199 125.617 27.5699C125.617 27.4166 125.57 27.2933 125.477 27.1999C125.387 27.1066 125.265 27.0599 125.112 27.0599H124.767C124.56 27.0599 124.457 27.1649 124.457 27.3749V28.0999H125.112ZM129.228 29.9999H128.533V26.4399H129.228V29.9999ZM133.872 27.0599H132.917V29.9999H132.222V27.0599H131.272V26.4399H133.872V27.0599ZM138.613 29.9999H137.888L137.688 29.3849H136.493L136.298 29.9999H135.573L136.713 26.7399C136.763 26.6266 136.818 26.5483 136.878 26.5049C136.941 26.4616 137.018 26.4399 137.108 26.4399C137.198 26.4399 137.27 26.4599 137.323 26.4999C137.38 26.5399 137.43 26.6199 137.473 26.7399L138.613 29.9999ZM137.528 28.7999L137.108 27.3899L136.668 28.7999H137.528ZM140.382 28.3249V27.8849C140.382 27.4216 140.503 27.0599 140.747 26.7999C140.99 26.5399 141.327 26.4099 141.757 26.4099C142.187 26.4099 142.532 26.5399 142.792 26.7999C142.975 26.9833 143.067 27.2583 143.067 27.6249H142.417C142.417 27.2283 142.205 27.0299 141.782 27.0299C141.655 27.0299 141.547 27.0549 141.457 27.1049C141.37 27.1516 141.305 27.2066 141.262 27.2699C141.218 27.3333 141.185 27.4266 141.162 27.5499C141.138 27.6733 141.125 27.7766 141.122 27.8599C141.118 27.9433 141.117 28.0549 141.117 28.1949C141.117 28.3349 141.117 28.4299 141.117 28.4799C141.12 28.5266 141.125 28.6049 141.132 28.7149C141.142 28.8216 141.155 28.8983 141.172 28.9449C141.192 28.9916 141.218 29.0516 141.252 29.1249C141.288 29.1983 141.333 29.2499 141.387 29.2799C141.523 29.3666 141.678 29.4099 141.852 29.4099C142.142 29.4099 142.347 29.2866 142.467 29.0399V28.7999H142.037V28.2199H143.062V29.2949C142.958 29.5383 142.795 29.7216 142.572 29.8449C142.348 29.9683 142.095 30.0299 141.812 30.0299C141.308 30.0299 140.943 29.8899 140.717 29.6099C140.493 29.3266 140.382 28.8983 140.382 28.3249ZM147.63 29.9999H146.37C145.97 29.9999 145.688 29.9316 145.525 29.7949C145.365 29.6549 145.285 29.4099 145.285 29.0599V26.4399H147.63V27.0599H145.98V27.8949H147.135L147.085 28.5149H145.98V29.0099C145.98 29.1499 146.012 29.2466 146.075 29.2999C146.138 29.3533 146.253 29.3799 146.42 29.3799H147.63V29.9999Z" fill="url(#paint9_linear_440_11498)"/>
<defs>
<linearGradient id="paint0_linear_440_11498" x1="-12.8879" y1="33.6878" x2="58.7109" y2="9.05847" gradientUnits="userSpaceOnUse">
<stop stop-color="#379F7D"/>
<stop offset="1" stop-color="#274996"/>
</linearGradient>
<linearGradient id="paint1_linear_440_11498" x1="-17.4951" y1="20.2946" x2="54.0827" y2="-4.32698" gradientUnits="userSpaceOnUse">
<stop stop-color="#379F7D"/>
<stop offset="1" stop-color="#274996"/>
</linearGradient>
<linearGradient id="paint2_linear_440_11498" x1="-16.3951" y1="23.4924" x2="55.1827" y2="-1.12923" gradientUnits="userSpaceOnUse">
<stop stop-color="#379F7D"/>
<stop offset="1" stop-color="#274996"/>
</linearGradient>
<linearGradient id="paint3_linear_440_11498" x1="-16.3212" y1="23.7065" x2="55.2567" y2="-0.915152" gradientUnits="userSpaceOnUse">
<stop stop-color="#379F7D"/>
<stop offset="1" stop-color="#274996"/>
</linearGradient>
<linearGradient id="paint4_linear_440_11498" x1="-10.9176" y1="39.4173" x2="60.6603" y2="14.7957" gradientUnits="userSpaceOnUse">
<stop stop-color="#379F7D"/>
<stop offset="1" stop-color="#274996"/>
</linearGradient>
<linearGradient id="paint5_linear_440_11498" x1="-9.81757" y1="42.6147" x2="61.7603" y2="17.9931" gradientUnits="userSpaceOnUse">
<stop stop-color="#379F7D"/>
<stop offset="1" stop-color="#274996"/>
</linearGradient>
<linearGradient id="paint6_linear_440_11498" x1="-10.9911" y1="39.2029" x2="60.5867" y2="14.5813" gradientUnits="userSpaceOnUse">
<stop stop-color="#379F7D"/>
<stop offset="1" stop-color="#274996"/>
</linearGradient>
<linearGradient id="paint7_linear_440_11498" x1="-8.07152" y1="22.2088" x2="30.8783" y2="5.65509" gradientUnits="userSpaceOnUse">
<stop stop-color="#379F7D"/>
<stop offset="1" stop-color="#274996"/>
</linearGradient>
<linearGradient id="paint8_linear_440_11498" x1="130" y1="53.7142" x2="99.0049" y2="-37.1403" gradientUnits="userSpaceOnUse">
<stop stop-color="#274996"/>
<stop offset="1" stop-color="#3DBA75"/>
</linearGradient>
<linearGradient id="paint9_linear_440_11498" x1="107" y1="40.0833" x2="102.314" y2="11.262" gradientUnits="userSpaceOnUse">
<stop stop-color="#274996"/>
<stop offset="1" stop-color="#3DBA75"/>
</linearGradient>
</defs>
</svg>
